<svg id="visual" viewBox="0 0 1920 1080" width="1920" height="1080" xmlns="http://www.w3.org/2000/svg" xmlns:xlink="http://www.w3.org/1999/xlink" version="1.1"><rect x="0" y="0" width="1920" height="1080" fill="#001220"></rect><defs><linearGradient id="grad1_0" x1="43.8%" y1="0%" x2="100%" y2="100%"><stop offset="14.444444444444446%" stop-color="#001220" stop-opacity="1"></stop><stop offset="85.55555555555554%" stop-color="#001220" stop-opacity="1"></stop></linearGradient></defs><defs><linearGradient id="grad2_0" x1="0%" y1="0%" x2="56.3%" y2="100%"><stop offset="14.444444444444446%" stop-color="#001220" stop-opacity="1"></stop><stop offset="85.55555555555554%" stop-color="#001220" stop-opacity="1"></stop></linearGradient></defs><g transform="translate(1920, 0)"><path d="M0 972C-63.2 970.1 -126.4 968.2 -189.6 953.3C-252.8 938.4 -316 910.5 -352.1 850C-388.1 789.4 -397.1 696.2 -437.2 654.4C-477.4 612.5 -548.7 622 -603.9 603.9C-659.1 585.7 -698.2 540 -738.3 493.3C-778.5 446.7 -819.7 399.3 -830.6 344C-841.4 288.8 -822 225.8 -840.5 167.2C-859.1 108.6 -915.5 54.3 -972 0L0 0Z" fill="#FBAE3C"></path></g><g transform="translate(0, 1080)"><path d="M0 -972C60.4 -953.9 120.9 -935.8 184.8 -928.8C248.6 -921.8 315.9 -925.9 372 -898C428.1 -870.1 473 -810.2 500 -748.3C527 -686.5 536 -622.6 592.6 -592.6C649.1 -562.5 753.2 -566.1 774.1 -517.2C795 -468.3 732.8 -366.9 729.9 -302.3C727 -237.8 783.4 -210.1 833.7 -165.8C883.9 -121.6 928 -60.8 972 0L0 0Z" fill="#FBAE3C"></path></g></svg>