<svg id="visual" viewBox="0 0 1920 1080" width="1920" height="1080" xmlns="http://www.w3.org/2000/svg" xmlns:xlink="http://www.w3.org/1999/xlink" version="1.1"><g stroke-width="1" stroke-linejoin="bevel"><path d="M867.3 515L1040.7 399L887.3 396Z" fill="#330b08" stroke="#330b08"></path><path d="M867.3 515L1092.7 518L1040.7 399Z" fill="#d00b12" stroke="#d00b12"></path><path d="M867.3 515L889.3 706L1092.7 518Z" fill="#5d0d13" stroke="#5d0d13"></path><path d="M1298 360L1065.7 207L1040.7 399Z" fill="#e70f0b" stroke="#e70f0b"></path><path d="M1040.7 399L1065.7 207L887.3 396Z" fill="#b80a15" stroke="#b80a15"></path><path d="M889.3 706L1095.7 752L1092.7 518Z" fill="#470d0f" stroke="#470d0f"></path><path d="M664 337L652 544L867.3 515Z" fill="#730d15" stroke="#730d15"></path><path d="M867.3 515L652 544L889.3 706Z" fill="#e70f0b" stroke="#e70f0b"></path><path d="M664 337L867.3 515L887.3 396Z" fill="#210300" stroke="#210300"></path><path d="M1065.7 207L881.3 158L887.3 396Z" fill="#5d0d13" stroke="#5d0d13"></path><path d="M881.3 158L664 337L887.3 396Z" fill="#470d0f" stroke="#470d0f"></path><path d="M1308 684L1297 509L1092.7 518Z" fill="#730d15" stroke="#730d15"></path><path d="M1092.7 518L1298 360L1040.7 399Z" fill="#b80a15" stroke="#b80a15"></path><path d="M1297 509L1298 360L1092.7 518Z" fill="#e70f0b" stroke="#e70f0b"></path><path d="M1095.7 752L1308 684L1092.7 518Z" fill="#8a0c16" stroke="#8a0c16"></path><path d="M1297 509L1511.3 345L1298 360Z" fill="#5d0d13" stroke="#5d0d13"></path><path d="M446.7 514L617 726L652 544Z" fill="#d00b12" stroke="#d00b12"></path><path d="M652 544L617 726L889.3 706Z" fill="#5d0d13" stroke="#5d0d13"></path><path d="M889.3 706L1104.7 892L1095.7 752Z" fill="#d00b12" stroke="#d00b12"></path><path d="M617 726L824.3 878L889.3 706Z" fill="#210300" stroke="#210300"></path><path d="M1095.7 752L1271 919L1308 684Z" fill="#d00b12" stroke="#d00b12"></path><path d="M881.3 158L612 204L664 337Z" fill="#5d0d13" stroke="#5d0d13"></path><path d="M664 337L446.7 514L652 544Z" fill="#d00b12" stroke="#d00b12"></path><path d="M824.3 878L1104.7 892L889.3 706Z" fill="#730d15" stroke="#730d15"></path><path d="M1495.3 175L1292 151L1298 360Z" fill="#d00b12" stroke="#d00b12"></path><path d="M1298 360L1292 151L1065.7 207Z" fill="#470d0f" stroke="#470d0f"></path><path d="M1065.7 207L1067.7 0L881.3 158Z" fill="#330b08" stroke="#330b08"></path><path d="M1292 151L1067.7 0L1065.7 207Z" fill="#e70f0b" stroke="#e70f0b"></path><path d="M881.3 158L828.3 0L612 204Z" fill="#a10b16" stroke="#a10b16"></path><path d="M1067.7 0L828.3 0L881.3 158Z" fill="#8a0c16" stroke="#8a0c16"></path><path d="M408.7 364L446.7 514L664 337Z" fill="#730d15" stroke="#730d15"></path><path d="M1104.7 892L1271 919L1095.7 752Z" fill="#a10b16" stroke="#a10b16"></path><path d="M1045.7 1080L1271 919L1104.7 892Z" fill="#5d0d13" stroke="#5d0d13"></path><path d="M1472.3 692L1505.3 549L1308 684Z" fill="#b80a15" stroke="#b80a15"></path><path d="M1308 684L1505.3 549L1297 509Z" fill="#a10b16" stroke="#a10b16"></path><path d="M1459.3 934L1472.3 692L1308 684Z" fill="#8a0c16" stroke="#8a0c16"></path><path d="M1505.3 549L1511.3 345L1297 509Z" fill="#b80a15" stroke="#b80a15"></path><path d="M457.7 204L664 337L612 204Z" fill="#d00b12" stroke="#d00b12"></path><path d="M457.7 204L408.7 364L664 337Z" fill="#8a0c16" stroke="#8a0c16"></path><path d="M617 726L630 927L824.3 878Z" fill="#d00b12" stroke="#d00b12"></path><path d="M824.3 878L1045.7 1080L1104.7 892Z" fill="#ff1500" stroke="#ff1500"></path><path d="M458.7 894L630 927L617 726Z" fill="#a10b16" stroke="#a10b16"></path><path d="M621 0L457.7 204L612 204Z" fill="#210300" stroke="#210300"></path><path d="M828.3 0L621 0L612 204Z" fill="#730d15" stroke="#730d15"></path><path d="M215.3 693L446.7 752L446.7 514Z" fill="#8a0c16" stroke="#8a0c16"></path><path d="M446.7 514L446.7 752L617 726Z" fill="#330b08" stroke="#330b08"></path><path d="M1495.3 175L1317 0L1292 151Z" fill="#5d0d13" stroke="#5d0d13"></path><path d="M1292 151L1317 0L1067.7 0Z" fill="#ff1500" stroke="#ff1500"></path><path d="M1511.3 345L1495.3 175L1298 360Z" fill="#730d15" stroke="#730d15"></path><path d="M855.3 1080L1045.7 1080L824.3 878Z" fill="#210300" stroke="#210300"></path><path d="M669 1080L855.3 1080L824.3 878Z" fill="#a10b16" stroke="#a10b16"></path><path d="M446.7 752L458.7 894L617 726Z" fill="#a10b16" stroke="#a10b16"></path><path d="M630 927L669 1080L824.3 878Z" fill="#470d0f" stroke="#470d0f"></path><path d="M232.3 899L458.7 894L446.7 752Z" fill="#e70f0b" stroke="#e70f0b"></path><path d="M457.7 1080L669 1080L630 927Z" fill="#a10b16" stroke="#a10b16"></path><path d="M1303 1080L1459.3 934L1271 919Z" fill="#210300" stroke="#210300"></path><path d="M1271 919L1459.3 934L1308 684Z" fill="#ff1500" stroke="#ff1500"></path><path d="M1716.7 579L1714.7 353L1505.3 549Z" fill="#ff1500" stroke="#ff1500"></path><path d="M1045.7 1080L1303 1080L1271 919Z" fill="#ff1500" stroke="#ff1500"></path><path d="M1685.7 0L1489.3 0L1495.3 175Z" fill="#5d0d13" stroke="#5d0d13"></path><path d="M1495.3 175L1489.3 0L1317 0Z" fill="#470d0f" stroke="#470d0f"></path><path d="M621 0L435.7 0L457.7 204Z" fill="#5d0d13" stroke="#5d0d13"></path><path d="M187.3 336L193.3 566L408.7 364Z" fill="#ff1500" stroke="#ff1500"></path><path d="M1505.3 549L1714.7 353L1511.3 345Z" fill="#470d0f" stroke="#470d0f"></path><path d="M1511.3 345L1705.7 186L1495.3 175Z" fill="#a10b16" stroke="#a10b16"></path><path d="M1716.7 579L1505.3 549L1718.7 682Z" fill="#470d0f" stroke="#470d0f"></path><path d="M1718.7 682L1505.3 549L1472.3 692Z" fill="#b80a15" stroke="#b80a15"></path><path d="M187.3 336L408.7 364L212.3 202Z" fill="#330b08" stroke="#330b08"></path><path d="M408.7 364L193.3 566L446.7 514Z" fill="#b80a15" stroke="#b80a15"></path><path d="M193.3 566L215.3 693L446.7 514Z" fill="#b80a15" stroke="#b80a15"></path><path d="M458.7 894L457.7 1080L630 927Z" fill="#5d0d13" stroke="#5d0d13"></path><path d="M1696.7 872L1718.7 682L1472.3 692Z" fill="#330b08" stroke="#330b08"></path><path d="M1716.7 579L1920 553L1714.7 353Z" fill="#730d15" stroke="#730d15"></path><path d="M212.3 202L408.7 364L457.7 204Z" fill="#d00b12" stroke="#d00b12"></path><path d="M232.3 899L457.7 1080L458.7 894Z" fill="#b80a15" stroke="#b80a15"></path><path d="M1714.7 353L1705.7 186L1511.3 345Z" fill="#470d0f" stroke="#470d0f"></path><path d="M241.3 0L212.3 202L457.7 204Z" fill="#330b08" stroke="#330b08"></path><path d="M1303 1080L1519.3 1080L1459.3 934Z" fill="#470d0f" stroke="#470d0f"></path><path d="M1459.3 934L1696.7 872L1472.3 692Z" fill="#5d0d13" stroke="#5d0d13"></path><path d="M1519.3 1080L1696.7 872L1459.3 934Z" fill="#470d0f" stroke="#470d0f"></path><path d="M0 755L232.3 899L215.3 693Z" fill="#470d0f" stroke="#470d0f"></path><path d="M215.3 693L232.3 899L446.7 752Z" fill="#210300" stroke="#210300"></path><path d="M435.7 0L241.3 0L457.7 204Z" fill="#a10b16" stroke="#a10b16"></path><path d="M0 386L193.3 566L187.3 336Z" fill="#330b08" stroke="#330b08"></path><path d="M1705.7 186L1685.7 0L1495.3 175Z" fill="#8a0c16" stroke="#8a0c16"></path><path d="M1920 685L1920 553L1716.7 579Z" fill="#a10b16" stroke="#a10b16"></path><path d="M1714.7 353L1920 199L1705.7 186Z" fill="#470d0f" stroke="#470d0f"></path><path d="M1705.7 186L1920 0L1685.7 0Z" fill="#470d0f" stroke="#470d0f"></path><path d="M1920 685L1716.7 579L1718.7 682Z" fill="#5d0d13" stroke="#5d0d13"></path><path d="M1920 553L1920 364L1714.7 353Z" fill="#e70f0b" stroke="#e70f0b"></path><path d="M0 386L0 528L193.3 566Z" fill="#5d0d13" stroke="#5d0d13"></path><path d="M193.3 566L0 755L215.3 693Z" fill="#ff1500" stroke="#ff1500"></path><path d="M0 386L187.3 336L0 192Z" fill="#a10b16" stroke="#a10b16"></path><path d="M0 192L187.3 336L212.3 202Z" fill="#ff1500" stroke="#ff1500"></path><path d="M1920 882L1920 685L1718.7 682Z" fill="#d00b12" stroke="#d00b12"></path><path d="M1920 882L1718.7 682L1696.7 872Z" fill="#730d15" stroke="#730d15"></path><path d="M1519.3 1080L1745.7 1080L1696.7 872Z" fill="#730d15" stroke="#730d15"></path><path d="M0 922L177.3 1080L232.3 899Z" fill="#e70f0b" stroke="#e70f0b"></path><path d="M232.3 899L177.3 1080L457.7 1080Z" fill="#8a0c16" stroke="#8a0c16"></path><path d="M1920 364L1920 199L1714.7 353Z" fill="#210300" stroke="#210300"></path><path d="M0 0L0 192L212.3 202Z" fill="#730d15" stroke="#730d15"></path><path d="M0 528L0 755L193.3 566Z" fill="#470d0f" stroke="#470d0f"></path><path d="M1745.7 1080L1920 882L1696.7 872Z" fill="#b80a15" stroke="#b80a15"></path><path d="M0 755L0 922L232.3 899Z" fill="#210300" stroke="#210300"></path><path d="M1920 199L1920 0L1705.7 186Z" fill="#470d0f" stroke="#470d0f"></path><path d="M241.3 0L0 0L212.3 202Z" fill="#8a0c16" stroke="#8a0c16"></path><path d="M1745.7 1080L1920 1080L1920 882Z" fill="#ff1500" stroke="#ff1500"></path><path d="M0 922L0 1080L177.3 1080Z" fill="#e70f0b" stroke="#e70f0b"></path></g></svg>