<svg id="visual" viewBox="0 0 1920 1080" width="1920" height="1080" xmlns="http://www.w3.org/2000/svg" xmlns:xlink="http://www.w3.org/1999/xlink" version="1.1"><path d="M0 185L29.2 222.7C58.3 260.3 116.7 335.7 174.8 330.2C233 324.7 291 238.3 349.2 202.3C407.3 166.3 465.7 180.7 523.8 223.8C582 267 640 339 698.2 357C756.3 375 814.7 339 872.8 297.7C931 256.3 989 209.7 1047.2 245.7C1105.3 281.7 1163.7 400.3 1221.8 452.5C1280 504.7 1338 490.3 1396.2 470.7C1454.3 451 1512.7 426 1570.8 386.5C1629 347 1687 293 1745.2 311C1803.3 329 1861.7 419 1890.8 464L1920 509L1920 0L1890.8 0C1861.7 0 1803.3 0 1745.2 0C1687 0 1629 0 1570.8 0C1512.7 0 1454.3 0 1396.2 0C1338 0 1280 0 1221.8 0C1163.7 0 1105.3 0 1047.2 0C989 0 931 0 872.8 0C814.7 0 756.3 0 698.2 0C640 0 582 0 523.8 0C465.7 0 407.3 0 349.2 0C291 0 233 0 174.8 0C116.7 0 58.3 0 29.2 0L0 0Z" fill="#330901"></path><path d="M0 444L29.2 490.8C58.3 537.7 116.7 631.3 174.8 633.2C233 635 291 545 349.2 473C407.3 401 465.7 347 523.8 377.5C582 408 640 523 698.2 559C756.3 595 814.7 552 872.8 505.2C931 458.3 989 407.7 1047.2 425.7C1105.3 443.7 1163.7 530.3 1221.8 579C1280 627.7 1338 638.3 1396.2 627.5C1454.3 616.7 1512.7 584.3 1570.8 543C1629 501.7 1687 451.3 1745.2 462.2C1803.3 473 1861.7 545 1890.8 581L1920 617L1920 507L1890.8 462C1861.7 417 1803.3 327 1745.2 309C1687 291 1629 345 1570.8 384.5C1512.7 424 1454.3 449 1396.2 468.7C1338 488.3 1280 502.7 1221.8 450.5C1163.7 398.3 1105.3 279.7 1047.2 243.7C989 207.7 931 254.3 872.8 295.7C814.7 337 756.3 373 698.2 355C640 337 582 265 523.8 221.8C465.7 178.7 407.3 164.3 349.2 200.3C291 236.3 233 322.7 174.8 328.2C116.7 333.7 58.3 258.3 29.2 220.7L0 183Z" fill="#3b0801"></path><path d="M0 757L29.2 782.2C58.3 807.3 116.7 857.7 174.8 875.7C233 893.7 291 879.3 349.2 845.2C407.3 811 465.7 757 523.8 757C582 757 640 811 698.2 848.8C756.3 886.7 814.7 908.3 872.8 908.3C931 908.3 989 886.7 1047.2 868.7C1105.3 850.7 1163.7 836.3 1221.8 834.5C1280 832.7 1338 843.3 1396.2 852.3C1454.3 861.3 1512.7 868.7 1570.8 852.5C1629 836.3 1687 796.7 1745.2 791.2C1803.3 785.7 1861.7 814.3 1890.8 828.7L1920 843L1920 615L1890.8 579C1861.7 543 1803.3 471 1745.2 460.2C1687 449.3 1629 499.7 1570.8 541C1512.7 582.3 1454.3 614.7 1396.2 625.5C1338 636.3 1280 625.7 1221.8 577C1163.7 528.3 1105.3 441.7 1047.2 423.7C989 405.7 931 456.3 872.8 503.2C814.7 550 756.3 593 698.2 557C640 521 582 406 523.8 375.5C465.7 345 407.3 399 349.2 471C291 543 233 633 174.8 631.2C116.7 629.3 58.3 535.7 29.2 488.8L0 442Z" fill="#440600"></path><path d="M0 941L29.2 946.3C58.3 951.7 116.7 962.3 174.8 964C233 965.7 291 958.3 349.2 942.2C407.3 926 465.7 901 523.8 904.7C582 908.3 640 940.7 698.2 960.5C756.3 980.3 814.7 987.7 872.8 982.3C931 977 989 959 1047.2 944.5C1105.3 930 1163.7 919 1221.8 924.3C1280 929.7 1338 951.3 1396.2 956.8C1454.3 962.3 1512.7 951.7 1570.8 930C1629 908.3 1687 875.7 1745.2 886.3C1803.3 897 1861.7 951 1890.8 978L1920 1005L1920 841L1890.8 826.7C1861.7 812.3 1803.3 783.7 1745.2 789.2C1687 794.7 1629 834.3 1570.8 850.5C1512.7 866.7 1454.3 859.3 1396.2 850.3C1338 841.3 1280 830.7 1221.8 832.5C1163.7 834.3 1105.3 848.7 1047.2 866.7C989 884.7 931 906.3 872.8 906.3C814.7 906.3 756.3 884.7 698.2 846.8C640 809 582 755 523.8 755C465.7 755 407.3 809 349.2 843.2C291 877.3 233 891.7 174.8 873.7C116.7 855.7 58.3 805.3 29.2 780.2L0 755Z" fill="#600d0d"></path><path d="M0 1081L29.2 1081C58.3 1081 116.7 1081 174.8 1081C233 1081 291 1081 349.2 1081C407.3 1081 465.7 1081 523.8 1081C582 1081 640 1081 698.2 1081C756.3 1081 814.7 1081 872.8 1081C931 1081 989 1081 1047.2 1081C1105.3 1081 1163.7 1081 1221.8 1081C1280 1081 1338 1081 1396.2 1081C1454.3 1081 1512.7 1081 1570.8 1081C1629 1081 1687 1081 1745.2 1081C1803.3 1081 1861.7 1081 1890.8 1081L1920 1081L1920 1003L1890.8 976C1861.7 949 1803.3 895 1745.2 884.3C1687 873.7 1629 906.3 1570.8 928C1512.7 949.7 1454.3 960.3 1396.2 954.8C1338 949.3 1280 927.7 1221.8 922.3C1163.7 917 1105.3 928 1047.2 942.5C989 957 931 975 872.8 980.3C814.7 985.7 756.3 978.3 698.2 958.5C640 938.7 582 906.3 523.8 902.7C465.7 899 407.3 924 349.2 940.2C291 956.3 233 963.7 174.8 962C116.7 960.3 58.3 949.7 29.2 944.3L0 939Z" fill="#7e1514"></path></svg>