<svg id="visual" viewBox="0 0 1920 1080" width="1920" height="1080" xmlns="http://www.w3.org/2000/svg" xmlns:xlink="http://www.w3.org/1999/xlink" version="1.1"><rect x="0" y="0" width="1920" height="1080" fill="#240300"></rect><path d="M0 764L29.2 745.5C58.3 727 116.7 690 174.8 681.3C233 672.7 291 692.3 349.2 693.5C407.3 694.7 465.7 677.3 523.8 704.8C582 732.3 640 804.7 698.2 834.2C756.3 863.7 814.7 850.3 872.8 833.5C931 816.7 989 796.3 1047.2 763.2C1105.3 730 1163.7 684 1221.8 684.8C1280 685.7 1338 733.3 1396.2 733.3C1454.3 733.3 1512.7 685.7 1570.8 704.5C1629 723.3 1687 808.7 1745.2 828.3C1803.3 848 1861.7 802 1890.8 779L1920 756L1920 1081L1890.8 1081C1861.7 1081 1803.3 1081 1745.2 1081C1687 1081 1629 1081 1570.8 1081C1512.7 1081 1454.3 1081 1396.2 1081C1338 1081 1280 1081 1221.8 1081C1163.7 1081 1105.3 1081 1047.2 1081C989 1081 931 1081 872.8 1081C814.7 1081 756.3 1081 698.2 1081C640 1081 582 1081 523.8 1081C465.7 1081 407.3 1081 349.2 1081C291 1081 233 1081 174.8 1081C116.7 1081 58.3 1081 29.2 1081L0 1081Z" fill="#ff1500" stroke-linecap="round" stroke-linejoin="miter"></path></svg>