<svg id="visual" viewBox="0 0 1920 1080" width="1920" height="1080" xmlns="http://www.w3.org/2000/svg" xmlns:xlink="http://www.w3.org/1999/xlink" version="1.1"><rect x="0" y="0" width="1920" height="1080" fill="#2d0400"></rect><defs><linearGradient id="grad1_0" x1="43.8%" y1="0%" x2="100%" y2="100%"><stop offset="14.444444444444446%" stop-color="#2d0400" stop-opacity="1"></stop><stop offset="85.55555555555554%" stop-color="#2d0400" stop-opacity="1"></stop></linearGradient></defs><defs><linearGradient id="grad2_0" x1="0%" y1="0%" x2="56.3%" y2="100%"><stop offset="14.444444444444446%" stop-color="#2d0400" stop-opacity="1"></stop><stop offset="85.55555555555554%" stop-color="#2d0400" stop-opacity="1"></stop></linearGradient></defs><g transform="translate(1920, 0)"><path d="M0 918C-77.1 933.4 -154.1 948.8 -204.3 895C-254.4 841.2 -277.6 718.3 -318.5 661.3C-359.4 604.4 -417.9 613.4 -482 604.4C-546 595.3 -615.4 568.1 -646.6 515.6C-677.7 463.2 -670.5 385.4 -673 324.1C-675.5 262.8 -687.8 217.9 -730.2 166.7C-772.7 115.4 -845.3 57.7 -918 0L0 0Z" fill="#ff1500"></path></g><g transform="translate(0, 1080)"><path d="M0 -918C67.4 -889.9 134.8 -861.7 185.8 -814.1C236.8 -766.4 271.3 -699.2 321.9 -668.5C372.6 -637.9 439.5 -643.8 497.5 -623.9C555.6 -604 604.9 -558.3 635.6 -506.9C666.3 -455.5 678.5 -398.3 726.2 -349.7C773.9 -301.1 857.1 -261.1 895 -204.3C932.9 -147.4 925.4 -73.7 918 0L0 0Z" fill="#ff1500"></path></g></svg>