<svg id="visual" viewBox="0 0 1920 1080" width="1920" height="1080" xmlns="http://www.w3.org/2000/svg" xmlns:xlink="http://www.w3.org/1999/xlink" version="1.1"><rect x="0" y="0" width="1920" height="1080" fill="#000b1c"></rect><path d="M0 590L160 677L320 627L480 614L640 588L800 576L960 691L1120 566L1280 568L1440 652L1600 553L1760 663L1920 704L1920 1081L1760 1081L1600 1081L1440 1081L1280 1081L1120 1081L960 1081L800 1081L640 1081L480 1081L320 1081L160 1081L0 1081Z" fill="#0066ff"></path><path d="M0 735L160 686L320 684L480 648L640 683L800 669L960 695L1120 743L1280 681L1440 681L1600 696L1760 682L1920 720L1920 1081L1760 1081L1600 1081L1440 1081L1280 1081L1120 1081L960 1081L800 1081L640 1081L480 1081L320 1081L160 1081L0 1081Z" fill="#005ade"></path><path d="M0 779L160 802L320 728L480 688L640 799L800 795L960 705L1120 761L1280 773L1440 732L1600 797L1760 748L1920 710L1920 1081L1760 1081L1600 1081L1440 1081L1280 1081L1120 1081L960 1081L800 1081L640 1081L480 1081L320 1081L160 1081L0 1081Z" fill="#004ebd"></path><path d="M0 736L160 763L320 817L480 846L640 842L800 816L960 799L1120 827L1280 736L1440 832L1600 744L1760 757L1920 843L1920 1081L1760 1081L1600 1081L1440 1081L1280 1081L1120 1081L960 1081L800 1081L640 1081L480 1081L320 1081L160 1081L0 1081Z" fill="#00429e"></path><path d="M0 829L160 822L320 820L480 877L640 825L800 833L960 826L1120 887L1280 847L1440 888L1600 832L1760 875L1920 828L1920 1081L1760 1081L1600 1081L1440 1081L1280 1081L1120 1081L960 1081L800 1081L640 1081L480 1081L320 1081L160 1081L0 1081Z" fill="#00367f"></path><path d="M0 870L160 877L320 903L480 937L640 879L800 915L960 941L1120 886L1280 856L1440 890L1600 866L1760 893L1920 923L1920 1081L1760 1081L1600 1081L1440 1081L1280 1081L1120 1081L960 1081L800 1081L640 1081L480 1081L320 1081L160 1081L0 1081Z" fill="#002a60"></path><path d="M0 931L160 927L320 983L480 959L640 933L800 965L960 984L1120 929L1280 959L1440 922L1600 959L1760 933L1920 983L1920 1081L1760 1081L1600 1081L1440 1081L1280 1081L1120 1081L960 1081L800 1081L640 1081L480 1081L320 1081L160 1081L0 1081Z" fill="#001e43"></path><path d="M0 1000L160 995L320 1022L480 978L640 988L800 1001L960 1018L1120 1015L1280 1002L1440 1023L1600 1010L1760 1017L1920 1034L1920 1081L1760 1081L1600 1081L1440 1081L1280 1081L1120 1081L960 1081L800 1081L640 1081L480 1081L320 1081L160 1081L0 1081Z" fill="#001027"></path></svg>