<svg id="visual" viewBox="0 0 1920 1080" width="1920" height="1080" xmlns="http://www.w3.org/2000/svg" xmlns:xlink="http://www.w3.org/1999/xlink" version="1.1"><rect x="0" y="0" width="1920" height="1080" fill="#000917"></rect><path d="M0 693L45.7 687C91.3 681 182.7 669 274.2 679C365.7 689 457.3 721 548.8 725C640.3 729 731.7 705 823 711.7C914.3 718.3 1005.7 755.7 1097 759C1188.3 762.3 1279.7 731.7 1371.2 719.8C1462.7 708 1554.3 715 1645.8 711.5C1737.3 708 1828.7 694 1874.3 687L1920 680L1920 1081L1874.3 1081C1828.7 1081 1737.3 1081 1645.8 1081C1554.3 1081 1462.7 1081 1371.2 1081C1279.7 1081 1188.3 1081 1097 1081C1005.7 1081 914.3 1081 823 1081C731.7 1081 640.3 1081 548.8 1081C457.3 1081 365.7 1081 274.2 1081C182.7 1081 91.3 1081 45.7 1081L0 1081Z" fill="#0040a0"></path><path d="M0 765L45.7 775.2C91.3 785.3 182.7 805.7 274.2 818.5C365.7 831.3 457.3 836.7 548.8 841.5C640.3 846.3 731.7 850.7 823 839C914.3 827.3 1005.7 799.7 1097 798.8C1188.3 798 1279.7 824 1371.2 815.5C1462.7 807 1554.3 764 1645.8 766.5C1737.3 769 1828.7 817 1874.3 841L1920 865L1920 1081L1874.3 1081C1828.7 1081 1737.3 1081 1645.8 1081C1554.3 1081 1462.7 1081 1371.2 1081C1279.7 1081 1188.3 1081 1097 1081C1005.7 1081 914.3 1081 823 1081C731.7 1081 640.3 1081 548.8 1081C457.3 1081 365.7 1081 274.2 1081C182.7 1081 91.3 1081 45.7 1081L0 1081Z" fill="#0b5ab8"></path><path d="M0 917L45.7 912.8C91.3 908.7 182.7 900.3 274.2 882C365.7 863.7 457.3 835.3 548.8 830.5C640.3 825.7 731.7 844.3 823 844.2C914.3 844 1005.7 825 1097 834.5C1188.3 844 1279.7 882 1371.2 896.8C1462.7 911.7 1554.3 903.3 1645.8 894.7C1737.3 886 1828.7 877 1874.3 872.5L1920 868L1920 1081L1874.3 1081C1828.7 1081 1737.3 1081 1645.8 1081C1554.3 1081 1462.7 1081 1371.2 1081C1279.7 1081 1188.3 1081 1097 1081C1005.7 1081 914.3 1081 823 1081C731.7 1081 640.3 1081 548.8 1081C457.3 1081 365.7 1081 274.2 1081C182.7 1081 91.3 1081 45.7 1081L0 1081Z" fill="#1f75ce"></path><path d="M0 965L45.7 955.8C91.3 946.7 182.7 928.3 274.2 914.2C365.7 900 457.3 890 548.8 883C640.3 876 731.7 872 823 882.3C914.3 892.7 1005.7 917.3 1097 933C1188.3 948.7 1279.7 955.3 1371.2 949.5C1462.7 943.7 1554.3 925.3 1645.8 926.3C1737.3 927.3 1828.7 947.7 1874.3 957.8L1920 968L1920 1081L1874.3 1081C1828.7 1081 1737.3 1081 1645.8 1081C1554.3 1081 1462.7 1081 1371.2 1081C1279.7 1081 1188.3 1081 1097 1081C1005.7 1081 914.3 1081 823 1081C731.7 1081 640.3 1081 548.8 1081C457.3 1081 365.7 1081 274.2 1081C182.7 1081 91.3 1081 45.7 1081L0 1081Z" fill="#3690e3"></path><path d="M0 966L45.7 969.5C91.3 973 182.7 980 274.2 982.5C365.7 985 457.3 983 548.8 977.7C640.3 972.3 731.7 963.7 823 972.2C914.3 980.7 1005.7 1006.3 1097 1015.2C1188.3 1024 1279.7 1016 1371.2 1008.5C1462.7 1001 1554.3 994 1645.8 991.5C1737.3 989 1828.7 991 1874.3 992L1920 993L1920 1081L1874.3 1081C1828.7 1081 1737.3 1081 1645.8 1081C1554.3 1081 1462.7 1081 1371.2 1081C1279.7 1081 1188.3 1081 1097 1081C1005.7 1081 914.3 1081 823 1081C731.7 1081 640.3 1081 548.8 1081C457.3 1081 365.7 1081 274.2 1081C182.7 1081 91.3 1081 45.7 1081L0 1081Z" fill="#4facf7"></path></svg>